#N canvas 225 86 1024 715 12;
#X obj 34 14 loadbang;
#X obj 34 91 print INFO;
#X msg 34 49 BellaSynth firmware loaded.;
#X obj 140 212 bellasynth;
#X obj 99 279 route 0 1 2 3 4 5 6 7;
#X obj 411 292 route 0 1 2 3 4 5 6 7;
#X obj 389 323 tgl 19 0 b0 empty empty 0 -10 0 12 #fcfcfc #000000 #000000 0 1;
#X obj 412 323 tgl 19 0 b1 empty empty 0 -10 0 12 #fcfcfc #000000 #000000 0 1;
#X obj 435 323 tgl 19 0 b2 empty empty 0 -10 0 12 #fcfcfc #000000 #000000 0 1;
#X obj 458 323 tgl 19 0 b3 empty empty 0 -10 0 12 #fcfcfc #000000 #000000 0 1;
#X obj 482 324 tgl 19 0 b4 empty empty 0 -10 0 12 #fcfcfc #000000 #000000 0 1;
#X obj 505 324 tgl 19 0 b5 empty empty 0 -10 0 12 #fcfcfc #000000 #000000 0 1;
#X obj 528 324 tgl 19 0 b6 empty empty 0 -10 0 12 #fcfcfc #000000 #000000 0 1;
#X obj 551 324 tgl 19 0 b7 empty empty 0 -10 0 12 #fcfcfc #000000 #000000 0 1;
#X obj 95 314 vsl 19 162 0 255 0 0 r0 empty empty 0 -9 0 12 #fcfcfc #000000 #000000 0 1;
#X obj 122 314 vsl 19 162 0 255 0 0 r1 empty empty 0 -9 0 12 #fcfcfc #000000 #000000 0 1;
#X obj 149 314 vsl 19 162 0 255 0 0 r2 empty empty 0 -9 0 12 #fcfcfc #000000 #000000 0 1;
#X obj 176 314 vsl 19 162 0 255 0 0 r3 empty empty 0 -9 0 12 #fcfcfc #000000 #000000 0 1;
#X obj 203 314 vsl 19 162 0 255 0 0 r4 empty empty 0 -9 0 12 #fcfcfc #000000 #000000 0 1;
#X obj 230 314 vsl 19 162 0 255 0 0 r5 empty empty 0 -9 0 12 #fcfcfc #000000 #000000 0 1;
#X obj 257 314 vsl 19 162 0 255 0 0 r6 empty empty 0 -9 0 12 #fcfcfc #000000 #000000 0 1;
#X obj 284 314 vsl 19 162 0 255 0 0 r7 empty empty 0 -9 0 12 #fcfcfc #000000 #000000 0 1;
#X obj 585 291 tgl 20 0 empty empty empty 0 -10 0 12 #fcfcfc #000000 #000000 0 1;
#X msg 119 138 /text 0 0 0 HELLO;
#X msg 403 41 \; pd dsp 1;
#X obj 404 9 loadbang;
#N canvas 61 25 752 663 waves 0;
#N canvas 0 50 450 250 (subpatch) 0;
#X array sin 67 float 1;
#A 0 -0.0980171 0 0.0980171 0.19509 0.290284 0.382683 0.471396 0.55557 0.634393 0.707106 0.77301 0.831469 0.881921 0.923879 0.95694 0.980785 0.995185 1 0.995185 0.980786 0.956941 0.92388 0.881922 0.831471 0.773012 0.707108 0.634395 0.555572 0.471399 0.382686 0.290287 0.195093 0.0980197 2.65359e-06 -0.0980144 -0.195088 -0.290282 -0.382681 -0.471394 -0.555568 -0.634391 -0.707104 -0.773008 -0.831468 -0.88192 -0.923878 -0.956939 -0.980785 -0.995184 -1 -0.995185 -0.980786 -0.956942 -0.923881 -0.881923 -0.831472 -0.773013 -0.70711 -0.634397 -0.555574 -0.471401 -0.382688 -0.29029 -0.195095 -0.0980223 -5.30718e-06 0.0980118;
#X coords 0 1 66 -1 200 140 1;
#X restore 31 24 graph;
#X msg 236 74 \; sin sinesum 100 1;
#N canvas 0 50 450 250 (subpatch) 0;
#X array saw 67 float 1;
#A 0 -0.673403 0 0.673403 0.999994 0.944281 0.759873 0.689506 0.743812 0.777979 0.714368 0.622182 0.5937 0.617178 0.611598 0.548782 0.484606 0.469777 0.47907 0.455448 0.394614 0.346337 0.338213 0.337395 0.302527 0.244642 0.208068 0.203589 0.194012 0.151038 0.0969552 0.0700706 0.0671913 0.0491442 1.53133e-06 -0.0491423 -0.0671911 -0.0700701 -0.0969528 -0.151035 -0.194011 -0.203589 -0.208067 -0.244639 -0.302524 -0.337394 -0.338213 -0.346336 -0.39461 -0.455446 -0.479069 -0.469778 -0.484604 -0.548777 -0.611596 -0.61718 -0.5937 -0.622178 -0.714363 -0.777979 -0.743816 -0.689507 -0.759865 -0.944271 -1 -0.673432 -4.02643e-05 0.673374;
#X coords 0 1 66 -1 200 140 1 0 0;
#X restore 32 187 graph;
#N canvas 0 50 450 250 (subpatch) 0;
#X array tri 67 float 1;
#A 0 -0.0620444 0 0.0620444 0.127402 0.19532 0.261793 0.32441 0.385523 0.449706 0.518109 0.586393 0.649417 0.708054 0.769915 0.841205 0.91645 0.97669 1 0.976691 0.916452 0.841207 0.769917 0.708055 0.649419 0.586395 0.518111 0.449708 0.385525 0.324412 0.261795 0.195322 0.127403 0.0620461 1.65716e-06 -0.0620427 -0.1274 -0.195318 -0.261791 -0.324409 -0.385521 -0.449704 -0.518108 -0.586391 -0.649416 -0.708052 -0.769913 -0.841203 -0.916448 -0.976689 -1 -0.976693 -0.916453 -0.841209 -0.769919 -0.708057 -0.64942 -0.586397 -0.518113 -0.449709 -0.385526 -0.324414 -0.261797 -0.195323 -0.127405 -0.0620479 -3.31432e-06 0.062041;
#X coords 0 1 66 -1 200 140 1;
#X restore 35 347 graph;
#N canvas 0 50 450 250 (subpatch) 0;
#X array sqr 67 float 1;
#A 0 -0.677629 0 0.677629 0.999994 0.949333 0.801514 0.787267 0.879245 0.919715 0.863181 0.810933 0.83954 0.894984 0.889931 0.83758 0.822639 0.866835 0.898361 0.866836 0.822639 0.837579 0.88993 0.894985 0.839542 0.810933 0.863178 0.919715 0.879247 0.787269 0.801512 0.949329 0.999997 0.677644 2.03225e-05 -0.677615 -0.999991 -0.949337 -0.801517 -0.787265 -0.879242 -0.919716 -0.863183 -0.810933 -0.839538 -0.894983 -0.889933 -0.837581 -0.822638 -0.866833 -0.898361 -0.866838 -0.82264 -0.837577 -0.889929 -0.894986 -0.839543 -0.810932 -0.863176 -0.919714 -0.87925 -0.78727 -0.801509 -0.949325 -1 -0.677658 -4.0645e-05 0.6776;
#X coords 0 1 66 -1 200 140 1;
#X restore 36 510 graph;
#X msg 251 548 \; sqr sinesum 100 1 0 0.3333 0 0.2 0 0.1428 0 0.1111 0 0.0909 0 0.0769 \; sqr normalize 1;
#X msg 248 379 \; tri sinesum 100 1 0 -0.1111 0 0.04 0 -0.0204 0 0.0123 0 -0.0082 \; tri normalize 1;
#X msg 240 249 \; saw sinesum 100 1 0.5 0.333333 0.25 0.2 0.16666 0.1428 0.125 0.1111 0.1 0.0909 0.0833 0.076 \; saw normalize 1;
#X restore 632 230 pd waves;
#X obj 412 370 r r0;
#X obj 482 368 r b0;
#X obj 140 185 r cmd;
#X obj 366 397 / 255;
#X msg 366 425 \; cmd /hsv 0 \$1 1 1;
#X obj 527 395 / 255;
#X obj 573 368 r r1;
#X obj 643 366 r b1;
#X msg 527 423 \; cmd /hsv 1 \$1 1 1;
#N canvas 87 87 499 501 synthtri 0;
#X obj 75 31 inlet note;
#X obj 193 35 inlet trigger;
#X obj 78 99 * 0.49803;
#X obj 78 147 hsl 170 20 0 127 0 0 empty empty freq -2 -10 0 12 #fcfcfc #000000 #000000 0 1;
#X text 152 97 puts it in midi-range (0-127);
#X obj 74 178 mtof;
#X obj 100 341 *~;
#X msg 12 107 \$1 100;
#X obj 11 133 line;
#X obj 213 250 line;
#X msg 211 218 \$1 500;
#X obj 214 292 hsl 170 20 0 1 0 0 empty empty vol -2 -10 0 12 #fcfcfc #000000 #000000 0 1;
#X obj 98 375 *~ 0.1;
#X obj 81 215 phasor~;
#X obj 80 245 *~ 100;
#X obj 74 278 tabread4~ tri;
#X obj 93 419 dac~;
#X connect 0 0 2 0;
#X connect 1 0 10 0;
#X connect 2 0 7 0;
#X connect 3 0 5 0;
#X connect 5 0 13 0;
#X connect 6 0 12 0;
#X connect 7 0 8 0;
#X connect 8 0 3 0;
#X connect 9 0 11 0;
#X connect 10 0 9 0;
#X connect 11 0 6 1;
#X connect 12 0 16 0;
#X connect 12 0 16 1;
#X connect 13 0 14 0;
#X connect 14 0 15 0;
#X connect 15 0 6 0;
#X restore 416 508 pd synthtri;
#X obj 370 507 / 255;
#X obj 531 505 / 255;
#X obj 416 480 r r2;
#X obj 486 478 r b2;
#X msg 370 535 \; cmd /hsv 2 \$1 1 1;
#X obj 577 478 r r3;
#X obj 647 476 r b3;
#X msg 531 533 \; cmd /hsv 3 \$1 1 1;
#N canvas 87 87 499 501 synthsin 0;
#X obj 75 31 inlet note;
#X obj 193 35 inlet trigger;
#X obj 78 99 * 0.49803;
#X obj 78 147 hsl 170 20 0 127 0 0 empty empty freq -2 -10 0 12 #fcfcfc #000000 #000000 0 1;
#X text 152 97 puts it in midi-range (0-127);
#X obj 74 178 mtof;
#X obj 100 341 *~;
#X msg 12 107 \$1 100;
#X obj 11 133 line;
#X obj 213 250 line;
#X msg 211 218 \$1 500;
#X obj 214 292 hsl 170 20 0 1 0 0 empty empty vol -2 -10 0 12 #fcfcfc #000000 #000000 0 1;
#X obj 97 383 *~ 0.1;
#X obj 81 215 phasor~;
#X obj 80 245 *~ 100;
#X obj 74 278 tabread4~ sin;
#X obj 93 419 dac~;
#X connect 0 0 2 0;
#X connect 1 0 10 0;
#X connect 2 0 7 0;
#X connect 3 0 5 0;
#X connect 5 0 13 0;
#X connect 6 0 12 0;
#X connect 7 0 8 0;
#X connect 8 0 3 0;
#X connect 9 0 11 0;
#X connect 10 0 9 0;
#X connect 11 0 6 1;
#X connect 12 0 16 0;
#X connect 12 0 16 1;
#X connect 13 0 14 0;
#X connect 14 0 15 0;
#X connect 15 0 6 0;
#X restore 412 398 pd synthsin;
#N canvas 87 87 499 501 synthsaw 0;
#X obj 75 31 inlet note;
#X obj 193 35 inlet trigger;
#X obj 78 99 * 0.49803;
#X obj 78 147 hsl 170 20 0 127 0 0 empty empty freq -2 -10 0 12 #fcfcfc #000000 #000000 0 1;
#X text 152 97 puts it in midi-range (0-127);
#X obj 74 178 mtof;
#X obj 100 341 *~;
#X msg 12 107 \$1 100;
#X obj 11 133 line;
#X obj 213 250 line;
#X msg 211 218 \$1 500;
#X obj 214 292 hsl 170 20 0 1 0 0 empty empty vol -2 -10 0 12 #fcfcfc #000000 #000000 0 1;
#X obj 97 383 *~ 0.1;
#X obj 81 215 phasor~;
#X obj 80 245 *~ 100;
#X obj 74 278 tabread4~ saw;
#X obj 93 419 dac~;
#X connect 0 0 2 0;
#X connect 1 0 10 0;
#X connect 2 0 7 0;
#X connect 3 0 5 0;
#X connect 5 0 13 0;
#X connect 6 0 12 0;
#X connect 7 0 8 0;
#X connect 8 0 3 0;
#X connect 9 0 11 0;
#X connect 10 0 9 0;
#X connect 11 0 6 1;
#X connect 12 0 16 0;
#X connect 12 0 16 1;
#X connect 13 0 14 0;
#X connect 14 0 15 0;
#X connect 15 0 6 0;
#X restore 573 396 pd synthsaw;
#N canvas 87 87 499 501 synthsqr 0;
#X obj 75 31 inlet note;
#X obj 193 35 inlet trigger;
#X obj 78 99 * 0.49803;
#X obj 78 147 hsl 170 20 0 127 0 0 empty empty freq -2 -10 0 12 #fcfcfc #000000 #000000 0 1;
#X text 152 97 puts it in midi-range (0-127);
#X obj 74 178 mtof;
#X obj 100 341 *~;
#X msg 12 107 \$1 100;
#X obj 11 133 line;
#X obj 213 250 line;
#X msg 211 218 \$1 500;
#X obj 214 292 hsl 170 20 0 1 0 0 empty empty vol -2 -10 0 12 #fcfcfc #000000 #000000 0 1;
#X obj 97 383 *~ 0.1;
#X obj 81 215 phasor~;
#X obj 80 245 *~ 100;
#X obj 74 278 tabread4~ sqr;
#X obj 93 419 dac~;
#X connect 0 0 2 0;
#X connect 1 0 10 0;
#X connect 2 0 7 0;
#X connect 3 0 5 0;
#X connect 5 0 13 0;
#X connect 6 0 12 0;
#X connect 7 0 8 0;
#X connect 8 0 3 0;
#X connect 9 0 11 0;
#X connect 10 0 9 0;
#X connect 11 0 6 1;
#X connect 12 0 16 0;
#X connect 12 0 16 1;
#X connect 13 0 14 0;
#X connect 14 0 15 0;
#X connect 15 0 6 0;
#X restore 577 506 pd synthsqr;
#X obj 670 395 / 255;
#X obj 831 393 / 255;
#N canvas 87 87 499 501 synthtri 0;
#X obj 75 31 inlet note;
#X obj 193 35 inlet trigger;
#X obj 78 99 * 0.49803;
#X obj 78 147 hsl 170 20 0 127 0 0 empty empty freq -2 -10 0 12 #fcfcfc #000000 #000000 0 1;
#X text 152 97 puts it in midi-range (0-127);
#X obj 74 178 mtof;
#X obj 100 341 *~;
#X msg 12 107 \$1 100;
#X obj 11 133 line;
#X obj 213 250 line;
#X msg 211 218 \$1 500;
#X obj 214 292 hsl 170 20 0 1 0 0 empty empty vol -2 -10 0 12 #fcfcfc #000000 #000000 0 1;
#X obj 97 383 *~ 0.1;
#X obj 81 215 phasor~;
#X obj 80 245 *~ 100;
#X obj 74 278 tabread4~ tri;
#X obj 93 419 dac~;
#X connect 0 0 2 0;
#X connect 1 0 10 0;
#X connect 2 0 7 0;
#X connect 3 0 5 0;
#X connect 5 0 13 0;
#X connect 6 0 12 0;
#X connect 7 0 8 0;
#X connect 8 0 3 0;
#X connect 9 0 11 0;
#X connect 10 0 9 0;
#X connect 11 0 6 1;
#X connect 12 0 16 0;
#X connect 12 0 16 1;
#X connect 13 0 14 0;
#X connect 14 0 15 0;
#X connect 15 0 6 0;
#X restore 720 506 pd synthtri;
#X obj 674 505 / 255;
#X obj 835 503 / 255;
#N canvas 87 87 499 501 synthsin 0;
#X obj 75 31 inlet note;
#X obj 193 35 inlet trigger;
#X obj 78 99 * 0.49803;
#X obj 78 147 hsl 170 20 0 127 0 0 empty empty freq -2 -10 0 12 #fcfcfc #000000 #000000 0 1;
#X text 152 97 puts it in midi-range (0-127);
#X obj 74 178 mtof;
#X obj 100 341 *~;
#X msg 12 107 \$1 100;
#X obj 11 133 line;
#X obj 213 250 line;
#X msg 211 218 \$1 500;
#X obj 214 292 hsl 170 20 0 1 0 0 empty empty vol -2 -10 0 12 #fcfcfc #000000 #000000 0 1;
#X obj 97 383 *~ 0.1;
#X obj 81 215 phasor~;
#X obj 80 245 *~ 100;
#X obj 74 278 tabread4~ sin;
#X obj 93 419 dac~;
#X connect 0 0 2 0;
#X connect 1 0 10 0;
#X connect 2 0 7 0;
#X connect 3 0 5 0;
#X connect 5 0 13 0;
#X connect 6 0 12 0;
#X connect 7 0 8 0;
#X connect 8 0 3 0;
#X connect 9 0 11 0;
#X connect 10 0 9 0;
#X connect 11 0 6 1;
#X connect 12 0 16 0;
#X connect 12 0 16 1;
#X connect 13 0 14 0;
#X connect 14 0 15 0;
#X connect 15 0 6 0;
#X restore 716 396 pd synthsin;
#N canvas 87 87 499 501 synthsaw 0;
#X obj 75 31 inlet note;
#X obj 193 35 inlet trigger;
#X obj 78 99 * 0.49803;
#X obj 78 147 hsl 170 20 0 127 0 0 empty empty freq -2 -10 0 12 #fcfcfc #000000 #000000 0 1;
#X text 152 97 puts it in midi-range (0-127);
#X obj 74 178 mtof;
#X obj 100 341 *~;
#X msg 12 107 \$1 100;
#X obj 11 133 line;
#X obj 213 250 line;
#X msg 211 218 \$1 500;
#X obj 214 292 hsl 170 20 0 1 0 0 empty empty vol -2 -10 0 12 #fcfcfc #000000 #000000 0 1;
#X obj 97 383 *~ 0.1;
#X obj 81 215 phasor~;
#X obj 80 245 *~ 100;
#X obj 74 278 tabread4~ saw;
#X obj 93 419 dac~;
#X connect 0 0 2 0;
#X connect 1 0 10 0;
#X connect 2 0 7 0;
#X connect 3 0 5 0;
#X connect 5 0 13 0;
#X connect 6 0 12 0;
#X connect 7 0 8 0;
#X connect 8 0 3 0;
#X connect 9 0 11 0;
#X connect 10 0 9 0;
#X connect 11 0 6 1;
#X connect 12 0 16 0;
#X connect 12 0 16 1;
#X connect 13 0 14 0;
#X connect 14 0 15 0;
#X connect 15 0 6 0;
#X restore 877 394 pd synthsaw;
#N canvas 87 87 499 501 synthsqr 0;
#X obj 75 31 inlet note;
#X obj 193 35 inlet trigger;
#X obj 78 99 * 0.49803;
#X obj 78 147 hsl 170 20 0 127 0 0 empty empty freq -2 -10 0 12 #fcfcfc #000000 #000000 0 1;
#X text 152 97 puts it in midi-range (0-127);
#X obj 74 178 mtof;
#X obj 100 341 *~;
#X msg 12 107 \$1 100;
#X obj 11 133 line;
#X obj 213 250 line;
#X msg 211 218 \$1 500;
#X obj 214 292 hsl 170 20 0 1 0 0 empty empty vol -2 -10 0 12 #fcfcfc #000000 #000000 0 1;
#X obj 97 383 *~ 0.1;
#X obj 81 215 phasor~;
#X obj 80 245 *~ 100;
#X obj 74 278 tabread4~ sqr;
#X obj 93 419 dac~;
#X connect 0 0 2 0;
#X connect 1 0 10 0;
#X connect 2 0 7 0;
#X connect 3 0 5 0;
#X connect 5 0 13 0;
#X connect 6 0 12 0;
#X connect 7 0 8 0;
#X connect 8 0 3 0;
#X connect 9 0 11 0;
#X connect 10 0 9 0;
#X connect 11 0 6 1;
#X connect 12 0 16 0;
#X connect 12 0 16 1;
#X connect 13 0 14 0;
#X connect 14 0 15 0;
#X connect 15 0 6 0;
#X restore 881 504 pd synthsqr;
#X obj 716 368 r r4;
#X obj 786 366 r b4;
#X msg 670 423 \; cmd /hsv 4 \$1 1 1;
#X msg 831 421 \; cmd /hsv 5 \$1 1 1;
#X obj 877 366 r r5;
#X obj 947 364 r b5;
#X obj 720 478 r r6;
#X obj 790 476 r b6;
#X msg 674 533 \; cmd /hsv 6 \$1 1 1;
#X obj 881 476 r r7;
#X obj 951 474 r b7;
#X msg 835 531 \; cmd /hsv 7 \$1 1 1;
#X connect 0 0 2 0;
#X connect 2 0 1 0;
#X connect 3 0 4 0;
#X connect 3 1 5 0;
#X connect 3 2 22 0;
#X connect 4 0 14 0;
#X connect 4 1 15 0;
#X connect 4 2 16 0;
#X connect 4 3 17 0;
#X connect 4 4 18 0;
#X connect 4 5 19 0;
#X connect 4 6 20 0;
#X connect 4 7 21 0;
#X connect 5 0 6 0;
#X connect 5 1 7 0;
#X connect 5 2 8 0;
#X connect 5 3 9 0;
#X connect 5 4 10 0;
#X connect 5 5 11 0;
#X connect 5 6 12 0;
#X connect 5 7 13 0;
#X connect 23 0 3 0;
#X connect 25 0 24 0;
#X connect 27 0 45 0;
#X connect 27 0 30 0;
#X connect 28 0 45 1;
#X connect 29 0 3 0;
#X connect 30 0 31 0;
#X connect 32 0 35 0;
#X connect 33 0 46 0;
#X connect 33 0 32 0;
#X connect 34 0 46 1;
#X connect 37 0 41 0;
#X connect 38 0 44 0;
#X connect 39 0 36 0;
#X connect 39 0 37 0;
#X connect 40 0 36 1;
#X connect 42 0 47 0;
#X connect 42 0 38 0;
#X connect 43 0 47 1;
#X connect 48 0 58 0;
#X connect 49 0 59 0;
#X connect 51 0 64 0;
#X connect 52 0 67 0;
#X connect 56 0 53 0;
#X connect 56 0 48 0;
#X connect 57 0 53 1;
#X connect 60 0 54 0;
#X connect 60 0 49 0;
#X connect 61 0 54 1;
#X connect 62 0 50 0;
#X connect 62 0 51 0;
#X connect 63 0 50 1;
#X connect 65 0 55 0;
#X connect 65 0 52 0;
#X connect 66 0 55 1;
