#N canvas 786 48 812 587 12;
#X obj 15 281 route 0 1 2 3 4 5 6 7;
#X obj 219 277 route 0 1 2 3 4 5 6 7;
#X obj 394 277 tgl 19 0 empty empty empty 0 -10 0 12 #fcfcfc #000000 #000000 0 1;
#X obj 197 308 tgl 19 0 empty empty empty 0 -10 0 12 #fcfcfc #000000 #000000 0 1;
#X obj 220 308 tgl 19 0 empty empty empty 0 -10 0 12 #fcfcfc #000000 #000000 0 1;
#X obj 243 308 tgl 19 0 empty empty empty 0 -10 0 12 #fcfcfc #000000 #000000 0 1;
#X obj 266 308 tgl 19 0 empty empty empty 0 -10 0 12 #fcfcfc #000000 #000000 0 1;
#X obj 290 309 tgl 19 0 empty empty empty 0 -10 0 12 #fcfcfc #000000 #000000 0 1;
#X obj 313 309 tgl 19 0 empty empty empty 0 -10 0 12 #fcfcfc #000000 #000000 0 1;
#X obj 336 309 tgl 19 0 empty empty empty 0 -10 0 12 #fcfcfc #000000 #000000 0 1;
#X obj 359 309 tgl 19 0 empty empty empty 0 -10 0 12 #fcfcfc #000000 #000000 0 1;
#X obj 11 316 vsl 19 162 0 255 0 0 empty empty empty 0 -9 0 12 #fcfcfc #000000 #000000 0 1;
#X obj 33 316 vsl 19 162 0 255 0 0 empty empty empty 0 -9 0 12 #fcfcfc #000000 #000000 0 1;
#X obj 55 316 vsl 19 162 0 255 0 0 empty empty empty 0 -9 0 12 #fcfcfc #000000 #000000 0 1;
#X obj 77 316 vsl 19 162 0 255 0 0 empty empty empty 0 -9 0 12 #fcfcfc #000000 #000000 0 1;
#X obj 99 316 vsl 19 162 0 255 0 0 empty empty empty 0 -9 0 12 #fcfcfc #000000 #000000 0 1;
#X obj 121 316 vsl 19 162 0 255 0 0 empty empty empty 0 -9 0 12 #fcfcfc #000000 #000000 0 1;
#X obj 143 316 vsl 19 162 0 255 0 0 empty empty empty 0 -9 0 12 #fcfcfc #000000 #000000 0 1;
#X obj 165 316 vsl 19 162 0 255 0 0 empty empty empty 0 -9 0 12 #fcfcfc #000000 #000000 0 1;
#X msg 164 69 /rot 0 100;
#X msg 159 15 /rgb 0 255 0 0;
#X msg 162 100 /text 1 0 0 This is some text;
#X msg 162 131 /rect 0 0 0 128 64;
#X msg 161 43 /hsv 0 0.3 1 1;
#X text 273 41 Set RGB 0 to green (alll nums 0-1);
#X text 277 16 Set RGB 0 to red (all nums 0-255);
#X text 255 66 Set rotary 0 to 100 (out of 255);
#X msg 165 162 /graph 1 0 0 128 64 0 1 2 4;
#X text 302 132 clear rectangle 0x0 - 128x64;
#X text 378 102 black text at 0x0;
#X text 370 164 black graph at 0x0 - 128x64;
#X obj 132 201 bellasynth;
#X obj 300 212 print unkown_python_message;
#X text 231 357 This interacts with hardware UI.;
#X text 229 381 You have:;
#X text 239 401 - 8 rotary-encoders;
#X text 239 419 - 8 buttons;
#X text 238 436 - 8 RGB LEDs;
#X text 237 453 - a single toggle switch;
#X text 237 469 - a B&W OLED screen (128x64);
#X text 509 236 In order to use it \,;
#X text 502 252 you will need the UI (python);
#X text 501 269 server running \, or this emulator:;
#X obj 509 302 bellasynth-emulator;
#X connect 0 0 11 0;
#X connect 0 1 12 0;
#X connect 0 2 13 0;
#X connect 0 3 14 0;
#X connect 0 4 15 0;
#X connect 0 5 16 0;
#X connect 0 6 17 0;
#X connect 0 7 18 0;
#X connect 1 0 3 0;
#X connect 1 1 4 0;
#X connect 1 2 5 0;
#X connect 1 3 6 0;
#X connect 1 4 7 0;
#X connect 1 5 8 0;
#X connect 1 6 9 0;
#X connect 1 7 10 0;
#X connect 19 0 31 0;
#X connect 20 0 31 0;
#X connect 21 0 31 0;
#X connect 22 0 31 0;
#X connect 23 0 31 0;
#X connect 27 0 31 0;
#X connect 31 0 0 0;
#X connect 31 1 1 0;
#X connect 31 2 2 0;
#X connect 31 3 32 0;
