#N canvas 2060 77 466 278 12;
#X obj 23 78 packOSC;
#X obj 21 124 unpackOSC;
#X obj 21 100 udpserver 8000;
#X obj 21 49 inlet commmands;
#X obj 230 194 outlet switch;
#X obj 21 191 outlet rotary;
#X obj 126 192 outlet button;
#X obj 21 153 routeOSC /rot /btn /sw;
#X obj 333 196 outlet unknown;
#X connect 0 0 2 0;
#X connect 1 0 7 0;
#X connect 2 0 1 0;
#X connect 3 0 0 0;
#X connect 7 0 5 0;
#X connect 7 1 6 0;
#X connect 7 2 4 0;
#X connect 7 3 8 0;
