#N canvas 343 67 1316 710 12;
#X obj 271 75 tgl 19 0 \$0-sw-s \$0-sw-r empty 0 -10 0 12 #ff8300 #faff00 #000000 0 1;
#X obj 49 74 tgl 19 0 \$0-b0-s \$0-b0-r empty 0 -10 0 12 #fcfcfc #000000 #000000 0 1;
#X obj 77 74 tgl 19 0 \$0-b1-s \$0-b1-r empty 0 -10 0 12 #fcfcfc #000000 #000000 0 1;
#X obj 105 74 tgl 19 0 \$0-b2-s \$0-b2-r empty 0 -10 0 12 #fcfcfc #000000 #000000 0 1;
#X obj 133 74 tgl 19 0 \$0-b3-s \$0-b3-r empty 0 -10 0 12 #fcfcfc #000000 #000000 0 1;
#X obj 162 75 tgl 19 0 \$0-b4-s \$0-b4-r empty 0 -10 0 12 #fcfcfc #000000 #000000 0 1;
#X obj 190 75 tgl 19 0 \$0-b5-s \$0-b5-r empty 0 -10 0 12 #fcfcfc #000000 #000000 0 1;
#X obj 218 75 tgl 19 0 \$0-b6-s \$0-b6-r empty 0 -10 0 12 #fcfcfc #000000 #000000 0 1;
#X obj 246 75 tgl 19 0 \$0-b7-s \$0-b7-r empty 0 -10 0 12 #fcfcfc #000000 #000000 0 1;
#X obj 47 105 vsl 19 162 0 255 0 0 \$0-r0-s \$0-r0-r empty 0 -9 0 12 #fcfcfc #000000 #000000 0 1;
#X obj 77 105 vsl 19 162 0 255 0 0 \$0-r1-s \$0-r1-r empty 0 -9 0 12 #fcfcfc #000000 #000000 0 1;
#X obj 105 105 vsl 19 162 0 255 0 0 \$0-r2-s \$0-r2-r empty 0 -9 0 12 #fcfcfc #000000 #000000 0 1;
#X obj 133 105 vsl 19 162 0 255 0 0 \$0-r3-s \$0-r3-r empty 0 -9 0 12 #fcfcfc #000000 #000000 0 1;
#X obj 161 105 vsl 19 162 0 255 0 0 \$0-r4-s \$0-r4-r empty 0 -9 0 12 #fcfcfc #000000 #000000 0 1;
#X obj 189 105 vsl 19 162 0 255 0 0 \$0-r5-s \$0-r5-r empty 0 -9 0 12 #fcfcfc #000000 #000000 0 1;
#X obj 217 105 vsl 19 162 0 255 0 0 \$0-r6-s \$0-r6-r empty 0 -9 0 12 #fcfcfc #000000 #000000 0 1;
#X obj 245 105 vsl 19 162 0 255 0 0 \$0-r7-s \$0-r7-r empty 0 -9 0 12 #fcfcfc #000000 #000000 0 1;
#N canvas 525 222 992 489 guts 0;
#X obj 509 57 select 1 0;
#X msg 514 94 connect localhost 8000;
#X msg 514 124 disconnect;
#X obj 531 216 udpclient;
#X obj 535 186 packOSC;
#X obj 531 250 unpackOSC;
#X obj 506 27 inlet power;
#X obj 390 341 print rgb;
#X obj 464 342 print hsv;
#X obj 617 347 print text;
#X obj 697 346 print rect;
#X obj 776 345 print graph;
#X obj 545 376 route 0 1 2 3 4 5 6 7;
#X obj 385 441 s \$0-r0-r;
#X msg 16 40 /sw \$1;
#X obj 14 14 r \$0-sw-s;
#X obj 535 158 r \$0-osc;
#X obj 14 64 s \$0-osc;
#X obj 438 290 routeOSC /rgb /hsv /rot /text /rect /graph;
#X obj 460 441 s \$0-r1-r;
#X obj 535 441 s \$0-r2-r;
#X obj 610 441 s \$0-r3-r;
#X obj 685 441 s \$0-r4-r;
#X obj 760 441 s \$0-r5-r;
#X obj 835 441 s \$0-r6-r;
#X obj 910 441 s \$0-r7-r;
#X obj 14 158 s \$0-osc;
#X obj 14 108 r \$0-r0-s;
#X obj 90 158 s \$0-osc;
#X obj 18 246 s \$0-osc;
#X obj 94 246 s \$0-osc;
#X obj 18 337 s \$0-osc;
#X obj 94 337 s \$0-osc;
#X obj 22 425 s \$0-osc;
#X obj 98 425 s \$0-osc;
#X obj 90 108 r \$0-r1-s;
#X msg 16 134 /rot 0 \$1;
#X msg 92 134 /rot 1 \$1;
#X obj 18 196 r \$0-r2-s;
#X obj 94 196 r \$0-r3-s;
#X obj 18 287 r \$0-r4-s;
#X obj 94 287 r \$0-r5-s;
#X obj 22 375 r \$0-r6-s;
#X obj 98 375 r \$0-r7-s;
#X msg 20 222 /rot 2 \$1;
#X msg 96 222 /rot 3 \$1;
#X msg 20 313 /rot 4 \$1;
#X msg 96 313 /rot 5 \$1;
#X msg 24 401 /rot 6 \$1;
#X msg 100 401 /rot 7 \$1;
#X obj 183 158 s \$0-osc;
#X obj 260 158 s \$0-osc;
#X obj 187 246 s \$0-osc;
#X obj 264 246 s \$0-osc;
#X obj 187 337 s \$0-osc;
#X obj 264 337 s \$0-osc;
#X obj 191 425 s \$0-osc;
#X obj 268 425 s \$0-osc;
#X obj 183 108 r \$0-b0-s;
#X obj 260 108 r \$0-b1-s;
#X obj 187 196 r \$0-b2-s;
#X obj 264 196 r \$0-b3-s;
#X obj 187 287 r \$0-b4-s;
#X obj 264 287 r \$0-b5-s;
#X obj 191 375 r \$0-b6-s;
#X obj 268 375 r \$0-b7-s;
#X msg 185 134 /btn 0 \$1;
#X msg 262 134 /btn 1 \$1;
#X msg 189 222 /btn 2 \$1;
#X msg 266 222 /btn 3 \$1;
#X msg 189 313 /btn 4 \$1;
#X msg 266 313 /btn 5 \$1;
#X msg 193 401 /btn 6 \$1;
#X msg 270 401 /btn 7 \$1;
#X connect 0 0 1 0;
#X connect 0 1 2 0;
#X connect 1 0 3 0;
#X connect 2 0 3 0;
#X connect 3 0 5 0;
#X connect 4 0 3 0;
#X connect 5 0 18 0;
#X connect 6 0 0 0;
#X connect 12 0 13 0;
#X connect 12 1 19 0;
#X connect 12 2 20 0;
#X connect 12 3 21 0;
#X connect 12 4 22 0;
#X connect 12 5 23 0;
#X connect 12 6 24 0;
#X connect 12 7 25 0;
#X connect 14 0 17 0;
#X connect 15 0 14 0;
#X connect 16 0 4 0;
#X connect 18 0 7 0;
#X connect 18 1 8 0;
#X connect 18 2 12 0;
#X connect 18 3 9 0;
#X connect 18 4 10 0;
#X connect 18 5 11 0;
#X connect 27 0 36 0;
#X connect 35 0 37 0;
#X connect 36 0 26 0;
#X connect 37 0 28 0;
#X connect 38 0 44 0;
#X connect 39 0 45 0;
#X connect 40 0 46 0;
#X connect 41 0 47 0;
#X connect 42 0 48 0;
#X connect 43 0 49 0;
#X connect 44 0 29 0;
#X connect 45 0 30 0;
#X connect 46 0 31 0;
#X connect 47 0 32 0;
#X connect 48 0 33 0;
#X connect 49 0 34 0;
#X connect 58 0 66 0;
#X connect 59 0 67 0;
#X connect 60 0 68 0;
#X connect 61 0 69 0;
#X connect 62 0 70 0;
#X connect 63 0 71 0;
#X connect 64 0 72 0;
#X connect 65 0 73 0;
#X connect 66 0 50 0;
#X connect 67 0 51 0;
#X connect 68 0 52 0;
#X connect 69 0 53 0;
#X connect 70 0 54 0;
#X connect 71 0 55 0;
#X connect 72 0 56 0;
#X connect 73 0 57 0;
#X restore 317 166 pd guts;
#X obj 320 133 tgl 19 0 empty empty empty 0 -10 0 12 #fcfcfc #000000 #000000 0 1;
#X obj 317 96 loadbang;
#N canvas 136 114 450 300 \$0-oled 0;
#X coords 0 -1 1 1 128 64 2 100 100;
#X restore 391 254 pd \$0-oled;
#X connect 18 0 17 0;
#X connect 19 0 18 0;
#X coords 0 -1 1 1 257 241 1 41 36;
