#N canvas 1191 377 630 502 12;
#X obj 235 52 tgl 19 0 \$0-sw-s \$0-sw-r empty 0 -10 0 12 #ff8300 #faff00
#000000 0 1;
#X obj 48 51 tgl 19 0 empty empty empty 0 -10 0 12 #fcfcfc #000000
#000000 0 1;
#X obj 71 51 tgl 19 0 empty empty empty 0 -10 0 12 #fcfcfc #000000
#000000 0 1;
#X obj 94 51 tgl 19 0 empty empty empty 0 -10 0 12 #fcfcfc #000000
#000000 0 1;
#X obj 117 51 tgl 19 0 empty empty empty 0 -10 0 12 #fcfcfc #000000
#000000 0 1;
#X obj 141 52 tgl 19 0 empty empty empty 0 -10 0 12 #fcfcfc #000000
#000000 0 1;
#X obj 164 52 tgl 19 0 empty empty empty 0 -10 0 12 #fcfcfc #000000
#000000 0 1;
#X obj 187 52 tgl 19 0 empty empty empty 0 -10 0 12 #fcfcfc #000000
#000000 0 1;
#X obj 210 52 tgl 19 0 empty empty empty 0 -10 0 12 #fcfcfc #000000
#000000 0 1;
#X obj 48 82 vsl 19 162 0 255 0 0 empty empty empty 0 -9 0 12 #fcfcfc
#000000 #000000 0 1;
#X obj 71 82 vsl 19 162 0 255 0 0 empty empty empty 0 -9 0 12 #fcfcfc
#000000 #000000 0 1;
#X obj 94 82 vsl 19 162 0 255 0 0 empty empty empty 0 -9 0 12 #fcfcfc
#000000 #000000 0 1;
#X obj 117 82 vsl 19 162 0 255 0 0 empty empty empty 0 -9 0 12 #fcfcfc
#000000 #000000 0 1;
#X obj 140 82 vsl 19 162 0 255 0 0 empty empty empty 0 -9 0 12 #fcfcfc
#000000 #000000 0 1;
#X obj 163 82 vsl 19 162 0 255 0 0 empty empty empty 0 -9 0 12 #fcfcfc
#000000 #000000 0 1;
#X obj 186 82 vsl 19 162 0 255 0 0 empty empty empty 0 -9 0 12 #fcfcfc
#000000 #000000 0 1;
#X obj 209 82 vsl 19 162 0 255 0 0 empty empty empty 0 -9 0 12 #fcfcfc
#000000 #000000 0 1;
#N canvas 652 135 840 715 guts 0;
#X obj 51 145 r \$0-r1-s;
#X obj 126 146 r \$0-r-s;
#X obj 433 54 select 1 0;
#X msg 353 89 connect localhost 8000;
#X msg 523 91 disconnect;
#X obj 405 244 udpclient;
#X obj 368 201 packOSC;
#X obj 405 268 unpackOSC;
#X obj 430 24 inlet power;
#X obj 264 359 print rgb;
#X obj 338 360 print hsv;
#X obj 491 365 print text;
#X obj 571 364 print rect;
#X obj 650 363 print graph;
#X obj 419 394 route 0 1 2 3 4 5 6 7;
#X obj 417 436 s \$0-r0-r;
#X msg 15 186 /rot 0 \$1;
#X msg 15 209 /rot 1 \$1;
#X msg 13 232 /rot 2 \$1;
#X msg 13 255 /rot 3 \$1;
#X msg 112 184 /rot 4 \$1;
#X msg 112 207 /rot 5 \$1;
#X msg 110 230 /rot 6 \$1;
#X msg 110 253 /rot 7 \$1;
#X msg 16 40 /sw \$1;
#X obj 14 14 r \$0-sw-s;
#X text 114 18 TODO: show OLEDS using cavas? emulate OLED with draw?
;
#X msg 32 481 /btn 0 \$1;
#X msg 32 504 /btn 1 \$1;
#X msg 30 527 /btn 2 \$1;
#X msg 30 550 /btn 3 \$1;
#X msg 106 480 /btn 4 \$1;
#X msg 106 503 /btn 5 \$1;
#X msg 104 526 /btn 6 \$1;
#X msg 104 549 /btn 7 \$1;
#X obj 369 167 r \$0-osc;
#X obj 14 64 s \$0-osc;
#X obj 54 327 s \$0-osc;
#X obj 47 587 s \$0-osc;
#X obj 312 308 routeOSC /rgb /hsv /rot /text /rect /graph;
#X connect 2 0 3 0;
#X connect 2 1 4 0;
#X connect 3 0 5 0;
#X connect 4 0 5 0;
#X connect 5 0 7 0;
#X connect 6 0 5 0;
#X connect 7 0 39 0;
#X connect 8 0 2 0;
#X connect 14 0 15 0;
#X connect 16 0 37 0;
#X connect 17 0 37 0;
#X connect 18 0 37 0;
#X connect 19 0 37 0;
#X connect 20 0 37 0;
#X connect 21 0 37 0;
#X connect 22 0 37 0;
#X connect 23 0 37 0;
#X connect 24 0 36 0;
#X connect 25 0 24 0;
#X connect 27 0 38 0;
#X connect 28 0 38 0;
#X connect 29 0 38 0;
#X connect 30 0 38 0;
#X connect 31 0 38 0;
#X connect 32 0 38 0;
#X connect 33 0 38 0;
#X connect 34 0 38 0;
#X connect 35 0 6 0;
#X connect 39 0 9 0;
#X connect 39 1 10 0;
#X connect 39 2 14 0;
#X connect 39 3 11 0;
#X connect 39 4 12 0;
#X connect 39 5 13 0;
#X restore 66 418 pd guts;
#X obj 64 385 tgl 19 0 empty empty empty 0 -10 0 12 #fcfcfc #000000
#000000 1 1;
#X obj 63 357 loadbang;
#X connect 18 0 17 0;
#X connect 19 0 18 0;
#X coords 0 -1 1 1 85 60 1 100 100;
