#N canvas 161 44 644 547 12;
#X obj 34 14 loadbang;
#X obj 34 91 print INFO;
#X msg 34 49 BellaSynth firmware loaded.;
#X obj 140 212 bellasynth;
#X obj 99 279 route 0 1 2 3 4 5 6 7;
#X obj 347 283 route 0 1 2 3 4 5 6 7;
#X obj 325 314 tgl 19 0 empty empty empty 0 -10 0 12 #fcfcfc #000000 #000000 0 1;
#X obj 348 314 tgl 19 0 empty empty empty 0 -10 0 12 #fcfcfc #000000 #000000 0 1;
#X obj 371 314 tgl 19 0 empty empty empty 0 -10 0 12 #fcfcfc #000000 #000000 0 1;
#X obj 394 314 tgl 19 0 empty empty empty 0 -10 0 12 #fcfcfc #000000 #000000 0 1;
#X obj 418 315 tgl 19 0 empty empty empty 0 -10 0 12 #fcfcfc #000000 #000000 0 1;
#X obj 441 315 tgl 19 0 empty empty empty 0 -10 0 12 #fcfcfc #000000 #000000 0 1;
#X obj 464 315 tgl 19 0 empty empty empty 0 -10 0 12 #fcfcfc #000000 #000000 0 1;
#X obj 487 315 tgl 19 0 empty empty empty 0 -10 0 12 #fcfcfc #000000 #000000 0 1;
#X obj 95 314 vsl 19 162 0 255 0 0 empty empty empty 0 -9 0 12 #fcfcfc #000000 #000000 0 1;
#X obj 122 314 vsl 19 162 0 255 0 0 empty empty empty 0 -9 0 12 #fcfcfc #000000 #000000 0 1;
#X obj 149 314 vsl 19 162 0 255 0 0 empty empty empty 0 -9 0 12 #fcfcfc #000000 #000000 0 1;
#X obj 176 314 vsl 19 162 0 255 0 0 empty empty empty 0 -9 0 12 #fcfcfc #000000 #000000 0 1;
#X obj 203 314 vsl 19 162 0 255 0 0 empty empty empty 0 -9 0 12 #fcfcfc #000000 #000000 0 1;
#X obj 230 314 vsl 19 162 0 255 0 0 empty empty empty 0 -9 0 12 #fcfcfc #000000 #000000 0 1;
#X obj 257 314 vsl 19 162 0 255 0 0 empty empty empty 0 -9 0 12 #fcfcfc #000000 #000000 0 1;
#X obj 284 314 vsl 19 162 0 255 0 0 empty empty empty 0 -9 0 12 #fcfcfc #000000 #000000 0 1;
#X msg 299 19 /rgb 0 255 0 0;
#X msg 304 73 /rot 0 100;
#X msg 302 104 /text 1 0 0 This is some text;
#X msg 302 135 /rect 0 0 0 128 64;
#X msg 305 166 /graph 1 0 0 128 64 0 1 2 4;
#X obj 521 282 tgl 20 0 empty empty empty 0 -10 0 12 #fcfcfc #000000 #000000 0 1;
#X msg 304 45 /hsv 0 0.25 1 1;
#X connect 0 0 2 0;
#X connect 2 0 1 0;
#X connect 3 0 4 0;
#X connect 3 1 5 0;
#X connect 3 2 27 0;
#X connect 4 0 14 0;
#X connect 4 1 15 0;
#X connect 4 2 16 0;
#X connect 4 3 17 0;
#X connect 4 4 18 0;
#X connect 4 5 19 0;
#X connect 4 6 20 0;
#X connect 4 7 21 0;
#X connect 5 0 6 0;
#X connect 5 1 7 0;
#X connect 5 2 8 0;
#X connect 5 3 9 0;
#X connect 5 4 10 0;
#X connect 5 5 11 0;
#X connect 5 6 12 0;
#X connect 5 7 13 0;
#X connect 22 0 3 0;
#X connect 23 0 3 0;
#X connect 24 0 3 0;
#X connect 25 0 3 0;
#X connect 26 0 3 0;
#X connect 28 0 3 0;
