#N canvas 161 44 779 649 12;
#X obj 34 14 loadbang;
#X obj 34 91 print INFO;
#X msg 34 49 BellaSynth firmware loaded.;
#X obj 140 212 bellasynth;
#X obj 99 279 route 0 1 2 3 4 5 6 7;
#X obj 411 292 route 0 1 2 3 4 5 6 7;
#X obj 389 323 tgl 19 0 empty empty empty 0 -10 0 12 #fcfcfc #000000 #000000 0 1;
#X obj 412 323 tgl 19 0 empty empty empty 0 -10 0 12 #fcfcfc #000000 #000000 0 1;
#X obj 435 323 tgl 19 0 empty empty empty 0 -10 0 12 #fcfcfc #000000 #000000 0 1;
#X obj 458 323 tgl 19 0 empty empty empty 0 -10 0 12 #fcfcfc #000000 #000000 0 1;
#X obj 482 324 tgl 19 0 empty empty empty 0 -10 0 12 #fcfcfc #000000 #000000 0 1;
#X obj 505 324 tgl 19 0 empty empty empty 0 -10 0 12 #fcfcfc #000000 #000000 0 1;
#X obj 528 324 tgl 19 0 empty empty empty 0 -10 0 12 #fcfcfc #000000 #000000 0 1;
#X obj 551 324 tgl 19 0 empty empty empty 0 -10 0 12 #fcfcfc #000000 #000000 0 1;
#X obj 95 314 vsl 19 162 0 255 0 0 empty empty empty 0 -9 0 12 #fcfcfc #000000 #000000 0 1;
#X obj 122 314 vsl 19 162 0 255 0 0 empty empty empty 0 -9 0 12 #fcfcfc #000000 #000000 0 1;
#X obj 149 314 vsl 19 162 0 255 0 0 empty empty empty 0 -9 0 12 #fcfcfc #000000 #000000 0 1;
#X obj 176 314 vsl 19 162 0 255 0 0 empty empty empty 0 -9 0 12 #fcfcfc #000000 #000000 0 1;
#X obj 203 314 vsl 19 162 0 255 0 0 empty empty empty 0 -9 0 12 #fcfcfc #000000 #000000 0 1;
#X obj 230 314 vsl 19 162 0 255 0 0 empty empty empty 0 -9 0 12 #fcfcfc #000000 #000000 0 1;
#X obj 257 314 vsl 19 162 0 255 0 0 empty empty empty 0 -9 0 12 #fcfcfc #000000 #000000 0 1;
#X obj 284 314 vsl 19 162 0 255 0 0 empty empty empty 0 -9 0 12 #fcfcfc #000000 #000000 0 1;
#X obj 585 291 tgl 20 0 empty empty empty 0 -10 0 12 #fcfcfc #000000 #000000 0 1;
#X obj 337 373 sel 0 1;
#X obj 140 185 r \$0-cmd;
#X obj 338 455 s \$0-cmd;
#X msg 336 401 /rgb 0 0 0 0;
#X msg 339 429 /rgb 0 255 255 255;
#X obj 481 373 sel 0 1;
#X obj 482 455 s \$0-cmd;
#X msg 480 401 /rgb 1 0 0 0;
#X msg 483 429 /rgb 1 255 255 255;
#X connect 0 0 2 0;
#X connect 2 0 1 0;
#X connect 3 0 4 0;
#X connect 3 1 5 0;
#X connect 3 2 22 0;
#X connect 4 0 14 0;
#X connect 4 1 15 0;
#X connect 4 2 16 0;
#X connect 4 3 17 0;
#X connect 4 4 18 0;
#X connect 4 5 19 0;
#X connect 4 6 20 0;
#X connect 4 7 21 0;
#X connect 5 0 6 0;
#X connect 5 1 7 0;
#X connect 5 2 8 0;
#X connect 5 3 9 0;
#X connect 5 4 10 0;
#X connect 5 5 11 0;
#X connect 5 6 12 0;
#X connect 5 7 13 0;
#X connect 6 0 23 0;
#X connect 7 0 28 0;
#X connect 23 0 26 0;
#X connect 23 1 27 0;
#X connect 24 0 3 0;
#X connect 26 0 25 0;
#X connect 27 0 25 0;
#X connect 28 0 30 0;
#X connect 28 1 31 0;
#X connect 30 0 29 0;
#X connect 31 0 29 0;
